<?xml version="1.0" encoding="utf-8"?>
<!-- Generator: Adobe Illustrator 18.0.0, SVG Export Plug-In . SVG Version: 6.00 Build 0)  -->
<!DOCTYPE svg PUBLIC "-//W3C//DTD SVG 1.1//EN" "http://www.w3.org/Graphics/SVG/1.1/DTD/svg11.dtd">
<svg version="1.1" id="Layer_1" xmlns="http://www.w3.org/2000/svg" xmlns:xlink="http://www.w3.org/1999/xlink" x="0px" y="0px"
	 viewBox="0 0 124.9 132.1" enable-background="new 0 0 124.9 132.1" xml:space="preserve">
<g>
	<path d="M20.4,118.5h-0.8v-7.4h-2.7v-0.7h6.3v0.7h-2.7V118.5z"/>
	<path d="M25.6,118.5h-0.8v-8.1h2.4c0.4,0,0.8,0,1.1,0.1s0.6,0.2,0.9,0.4c0.2,0.2,0.4,0.4,0.6,0.7c0.1,0.3,0.2,0.6,0.2,1
		c0,0.3-0.1,0.6-0.2,0.8s-0.3,0.5-0.4,0.6c-0.2,0.2-0.4,0.3-0.7,0.4s-0.5,0.2-0.8,0.2l2.4,3.9h-1l-2.3-3.8h-1.4V118.5z M25.6,114
		h1.4c0.7,0,1.2-0.1,1.5-0.4c0.4-0.2,0.5-0.6,0.5-1.1c0-0.3-0.1-0.5-0.1-0.7s-0.2-0.3-0.4-0.4c-0.2-0.1-0.4-0.2-0.6-0.3
		c-0.3-0.1-0.5-0.1-0.8-0.1h-1.5V114z"/>
	<path d="M32.1,118.5h-0.9l3.5-8.1h0.8l3.5,8.1h-0.9l-0.9-2.1H33L32.1,118.5z M33.3,115.6h3.6l-1.8-4.3L33.3,115.6z"/>
	<path d="M47.4,117.2c-0.1,0.2-0.3,0.4-0.5,0.6c-0.2,0.2-0.4,0.3-0.7,0.5c-0.3,0.1-0.5,0.3-0.9,0.3c-0.3,0.1-0.6,0.1-1,0.1
		c-0.6,0-1.2-0.1-1.7-0.3c-0.5-0.2-1-0.5-1.3-0.9c-0.4-0.4-0.7-0.8-0.9-1.4s-0.3-1.1-0.3-1.7s0.1-1.2,0.3-1.7c0.2-0.5,0.5-1,0.9-1.4
		c0.4-0.4,0.8-0.7,1.3-0.9c0.5-0.2,1.1-0.3,1.7-0.3c0.3,0,0.6,0,0.9,0.1c0.3,0.1,0.6,0.1,0.8,0.3c0.3,0.1,0.5,0.2,0.7,0.4
		s0.4,0.3,0.5,0.5l-0.7,0.5c-0.1-0.1-0.2-0.3-0.3-0.4c-0.1-0.1-0.3-0.2-0.5-0.3c-0.2-0.1-0.4-0.2-0.6-0.2c-0.2-0.1-0.5-0.1-0.7-0.1
		c-0.5,0-1,0.1-1.4,0.3c-0.4,0.2-0.8,0.4-1.1,0.8c-0.3,0.3-0.5,0.7-0.7,1.1c-0.2,0.4-0.2,0.9-0.2,1.4c0,0.5,0.1,0.9,0.2,1.4
		c0.2,0.4,0.4,0.8,0.7,1.1c0.3,0.3,0.6,0.6,1.1,0.8c0.4,0.2,0.9,0.3,1.4,0.3c0.5,0,0.9-0.1,1.3-0.3c0.4-0.2,0.8-0.5,1.1-0.9
		L47.4,117.2z"/>
	<path d="M52,118.5h-0.8V115l-3-4.6h1l2.5,3.9l2.5-3.9h1l-3,4.6V118.5z"/>
	<path d="M66.5,117.2c-0.1,0.2-0.3,0.4-0.5,0.6c-0.2,0.2-0.4,0.3-0.7,0.5c-0.3,0.1-0.5,0.3-0.9,0.3c-0.3,0.1-0.6,0.1-1,0.1
		c-0.6,0-1.2-0.1-1.7-0.3c-0.5-0.2-1-0.5-1.3-0.9c-0.4-0.4-0.7-0.8-0.9-1.4s-0.3-1.1-0.3-1.7s0.1-1.2,0.3-1.7c0.2-0.5,0.5-1,0.9-1.4
		c0.4-0.4,0.8-0.7,1.3-0.9c0.5-0.2,1.1-0.3,1.7-0.3c0.3,0,0.6,0,0.9,0.1c0.3,0.1,0.6,0.1,0.8,0.3c0.3,0.1,0.5,0.2,0.7,0.4
		s0.4,0.3,0.5,0.5l-0.7,0.5c-0.1-0.1-0.2-0.3-0.3-0.4c-0.1-0.1-0.3-0.2-0.5-0.3c-0.2-0.1-0.4-0.2-0.6-0.2c-0.2-0.1-0.5-0.1-0.7-0.1
		c-0.5,0-1,0.1-1.4,0.3c-0.4,0.2-0.8,0.4-1.1,0.8c-0.3,0.3-0.5,0.7-0.7,1.1c-0.2,0.4-0.2,0.9-0.2,1.4c0,0.5,0.1,0.9,0.2,1.4
		c0.2,0.4,0.4,0.8,0.7,1.1c0.3,0.3,0.6,0.6,1.1,0.8c0.4,0.2,0.9,0.3,1.4,0.3c0.5,0,0.9-0.1,1.3-0.3c0.4-0.2,0.8-0.5,1.1-0.9
		L66.5,117.2z"/>
	<path d="M68.3,118.5h-0.9l3.5-8.1h0.8l3.5,8.1h-0.9l-0.9-2.1h-4.2L68.3,118.5z M69.5,115.6H73l-1.8-4.3L69.5,115.6z"/>
	<path d="M77.7,118.5h-0.8v-8.1h2.4c0.4,0,0.8,0,1.1,0.1s0.6,0.2,0.9,0.4c0.2,0.2,0.4,0.4,0.6,0.7c0.1,0.3,0.2,0.6,0.2,1
		c0,0.3-0.1,0.6-0.2,0.8s-0.3,0.5-0.4,0.6c-0.2,0.2-0.4,0.3-0.7,0.4s-0.5,0.2-0.8,0.2l2.4,3.9h-1l-2.3-3.8h-1.4V118.5z M77.7,114
		h1.4c0.7,0,1.2-0.1,1.5-0.4c0.4-0.2,0.5-0.6,0.5-1.1c0-0.3-0.1-0.5-0.1-0.7s-0.2-0.3-0.4-0.4c-0.2-0.1-0.4-0.2-0.6-0.3
		c-0.3-0.1-0.5-0.1-0.8-0.1h-1.5V114z"/>
	<path d="M87.2,118.7c-0.6,0-1.1-0.1-1.5-0.3s-0.7-0.5-0.9-0.8s-0.4-0.7-0.5-1.1c-0.1-0.4-0.1-0.7-0.1-1.1v-5.1H85v5
		c0,0.3,0,0.6,0.1,1s0.2,0.6,0.4,0.8c0.2,0.2,0.4,0.4,0.7,0.6s0.6,0.2,1,0.2s0.8-0.1,1-0.2s0.5-0.3,0.7-0.6c0.2-0.2,0.3-0.5,0.4-0.8
		s0.1-0.6,0.1-1v-5h0.8v5.1c0,0.3,0,0.7-0.1,1.1c-0.1,0.4-0.2,0.7-0.5,1.1c-0.2,0.3-0.5,0.6-0.9,0.8
		C88.4,118.6,87.9,118.7,87.2,118.7z"/>
	<path d="M96.9,111.7c-0.2-0.2-0.4-0.4-0.7-0.6s-0.6-0.2-1-0.2c-0.2,0-0.4,0-0.6,0.1c-0.2,0.1-0.4,0.2-0.6,0.3
		c-0.2,0.1-0.3,0.3-0.4,0.5c-0.1,0.2-0.2,0.4-0.2,0.7s0,0.5,0.1,0.6c0.1,0.2,0.2,0.3,0.4,0.4c0.2,0.1,0.4,0.2,0.6,0.3
		c0.2,0.1,0.4,0.2,0.7,0.2c0.3,0.1,0.6,0.2,0.9,0.3c0.3,0.1,0.5,0.2,0.8,0.4s0.4,0.4,0.6,0.7c0.1,0.3,0.2,0.6,0.2,1
		c0,0.4-0.1,0.8-0.2,1.1c-0.2,0.3-0.4,0.5-0.6,0.7c-0.2,0.2-0.5,0.3-0.8,0.4c-0.3,0.1-0.6,0.1-1,0.1c-0.2,0-0.5,0-0.7-0.1
		c-0.2,0-0.5-0.1-0.7-0.2c-0.2-0.1-0.4-0.2-0.6-0.4c-0.2-0.2-0.4-0.3-0.5-0.5l0.7-0.5c0.2,0.3,0.4,0.5,0.7,0.7
		c0.3,0.2,0.7,0.3,1.1,0.3c0.2,0,0.4,0,0.6-0.1c0.2-0.1,0.4-0.2,0.6-0.3c0.2-0.1,0.3-0.3,0.4-0.5c0.1-0.2,0.2-0.4,0.2-0.7
		c0-0.3-0.1-0.5-0.2-0.7s-0.3-0.3-0.4-0.5s-0.4-0.2-0.6-0.3c-0.2-0.1-0.5-0.2-0.7-0.3c-0.3-0.1-0.5-0.2-0.8-0.3
		c-0.3-0.1-0.5-0.2-0.7-0.4c-0.2-0.2-0.4-0.4-0.5-0.6c-0.1-0.3-0.2-0.6-0.2-0.9c0-0.4,0.1-0.7,0.2-1c0.2-0.3,0.4-0.5,0.6-0.7
		c0.3-0.2,0.5-0.3,0.8-0.4s0.6-0.1,0.9-0.1c0.6,0,1,0.1,1.4,0.3c0.4,0.2,0.7,0.4,0.9,0.7L96.9,111.7z"/>
	<path d="M107.9,114.4c0,0.6-0.1,1.2-0.3,1.7c-0.2,0.5-0.5,1-0.9,1.4c-0.4,0.4-0.8,0.7-1.3,0.9c-0.5,0.2-1.1,0.3-1.7,0.3
		s-1.2-0.1-1.7-0.3c-0.5-0.2-1-0.5-1.3-0.9c-0.4-0.4-0.7-0.8-0.9-1.4c-0.2-0.5-0.3-1.1-0.3-1.7s0.1-1.2,0.3-1.7
		c0.2-0.5,0.5-1,0.9-1.4c0.4-0.4,0.8-0.7,1.3-0.9c0.5-0.2,1.1-0.3,1.7-0.3s1.2,0.1,1.7,0.3c0.5,0.2,1,0.5,1.3,0.9
		c0.4,0.4,0.7,0.8,0.9,1.4C107.8,113.2,107.9,113.8,107.9,114.4z M107.1,114.4c0-0.5-0.1-0.9-0.2-1.4c-0.2-0.4-0.4-0.8-0.7-1.1
		s-0.6-0.6-1.1-0.8s-0.9-0.3-1.4-0.3s-1,0.1-1.4,0.3s-0.8,0.4-1.1,0.8s-0.5,0.7-0.7,1.1s-0.2,0.9-0.2,1.4c0,0.5,0.1,0.9,0.2,1.4
		s0.4,0.8,0.7,1.1c0.3,0.3,0.6,0.6,1.1,0.8s0.9,0.3,1.4,0.3s1-0.1,1.4-0.3s0.8-0.4,1.1-0.8c0.3-0.3,0.5-0.7,0.7-1.1
		C107,115.3,107.1,114.9,107.1,114.4z"/>
</g>
<g>
	<g>
		<path d="M40.6,97.5v-1.6l7-1.6V25.1H34.2c0,2.9-0.4,5.3-1.2,7.3c-0.8,2-1.6,3.8-2.6,5.2c-1.1,1.6-2.4,3-3.9,4.1H23V22.4h68.7v19.3
			h-3.5c-1.4-1.1-2.7-2.4-3.8-4.1c-0.9-1.4-1.8-3.2-2.6-5.2c-0.8-2-1.2-4.5-1.2-7.3H67v69.2l7,1.6v1.6H40.6z"/>
	</g>
	<g>
		<polygon points="30.9,17.2 23,22.4 23.1,23.8 31.2,23.8 31.2,17.2 		"/>
	</g>
	<g>
		<polygon points="34.8,37 26.5,41.7 26.5,31.8 		"/>
	</g>
	<g>
		<rect x="38.8" y="19.4" width="51.1" height="3.1"/>
	</g>
	<g>
		<polyline points="100,36.9 91.7,41.7 85.8,31.2 100,28.3 		"/>
	</g>
	<g>
		<polyline points="40.6,95.9 49,91.1 50.7,96.5 41.6,96.8 		"/>
	</g>
	<g>
		<polyline points="82.5,92.8 74.1,97.5 65.8,94.9 65.6,90.8 82.1,91.5 		"/>
	</g>
	<g>
		<path fill="#FFFFFF" d="M48.8,92.5v-1.6l7-1.6V20.2H42.3c0,2.9-0.4,5.3-1.2,7.3c-0.8,2-1.6,3.8-2.6,5.2c-1.1,1.6-2.4,3-3.9,4.1
			h-3.5V17.5h68.7v19.3h-3.5c-1.4-1.1-2.7-2.4-3.8-4.1c-0.9-1.4-1.8-3.2-2.6-5.2c-0.8-2-1.2-4.5-1.2-7.3H75.2v69.2l7,1.6v1.6H48.8z"
			/>
	</g>
	<g>
		<path d="M82.5,92.8h-34v-2.1l7-1.6V20.4h-13c0,2.8-0.4,5.2-1.2,7.2c-0.8,2-1.7,3.8-2.6,5.2c-1.1,1.7-2.4,3.1-3.9,4.1l-0.1,0h-3.9
			V17.2h69.2V37h-3.9L96.2,37c-1.4-1.1-2.7-2.5-3.8-4.1c-0.9-1.4-1.8-3.2-2.7-5.2c-0.8-2-1.2-4.4-1.2-7.2h-13v68.7l7,1.6V92.8z
			 M49,92.3h33v-1.2l-7-1.6V19.9h14v0.2c0,2.8,0.4,5.3,1.2,7.3c0.8,2,1.7,3.7,2.6,5.2c1.1,1.6,2.3,2.9,3.6,4h3.2V17.7H31.4v18.8h3.2
			c1.4-1,2.7-2.4,3.7-4c0.9-1.4,1.8-3.1,2.6-5.2c0.8-2,1.2-4.4,1.2-7.3v-0.2h14v69.6l-7,1.6V92.3z"/>
	</g>
	<g>
		<defs>
			<path id="SVGID_1_" d="M48.8,92.5v-1.6l7-1.6V20.2H42.3c0,2.9-0.4,5.3-1.2,7.3c-0.8,2-1.6,3.8-2.6,5.2c-1.1,1.6-2.4,3-3.9,4.1
				h-3.5V17.5h68.7v19.3h-3.5c-1.4-1.1-2.7-2.4-3.8-4.1c-0.9-1.4-1.8-3.2-2.6-5.2c-0.8-2-1.2-4.5-1.2-7.3H75.2v69.2l7,1.6v1.6H48.8z
				"/>
		</defs>
		<clipPath id="SVGID_2_">
			<use xlink:href="#SVGID_1_"  overflow="visible"/>
		</clipPath>
		<g clip-path="url(#SVGID_2_)">
			<path d="M103,92.8H28.2V17.1H103V92.8z M28.7,92.3h73.9V17.6H28.7V92.3z"/>
		</g>
		<g clip-path="url(#SVGID_2_)">
			<rect x="28.4" y="91.2" width="74.4" height="0.5"/>
		</g>
		<g clip-path="url(#SVGID_2_)">
			<rect x="28.4" y="90.2" width="74.4" height="0.5"/>
		</g>
		<g clip-path="url(#SVGID_2_)">
			<rect x="28.4" y="89.2" width="74.4" height="0.5"/>
		</g>
		<g clip-path="url(#SVGID_2_)">
			<rect x="28.4" y="88.2" width="74.4" height="0.5"/>
		</g>
		<g clip-path="url(#SVGID_2_)">
			<rect x="28.4" y="87.1" width="74.4" height="0.5"/>
		</g>
		<g clip-path="url(#SVGID_2_)">
			<rect x="28.4" y="86.1" width="74.4" height="0.5"/>
		</g>
		<g clip-path="url(#SVGID_2_)">
			<rect x="28.4" y="85.1" width="74.4" height="0.5"/>
		</g>
		<g clip-path="url(#SVGID_2_)">
			<rect x="28.4" y="84" width="74.4" height="0.5"/>
		</g>
		<g clip-path="url(#SVGID_2_)">
			<rect x="28.4" y="83" width="74.4" height="0.5"/>
		</g>
		<g clip-path="url(#SVGID_2_)">
			<rect x="28.4" y="82" width="74.4" height="0.5"/>
		</g>
		<g clip-path="url(#SVGID_2_)">
			<rect x="28.4" y="81" width="74.4" height="0.5"/>
		</g>
		<g clip-path="url(#SVGID_2_)">
			<rect x="28.4" y="79.9" width="74.4" height="0.5"/>
		</g>
		<g clip-path="url(#SVGID_2_)">
			<rect x="28.4" y="78.9" width="74.4" height="0.5"/>
		</g>
		<g clip-path="url(#SVGID_2_)">
			<rect x="28.4" y="77.9" width="74.4" height="0.5"/>
		</g>
		<g clip-path="url(#SVGID_2_)">
			<rect x="28.4" y="76.8" width="74.4" height="0.5"/>
		</g>
		<g clip-path="url(#SVGID_2_)">
			<rect x="28.4" y="75.8" width="74.4" height="0.5"/>
		</g>
		<g clip-path="url(#SVGID_2_)">
			<rect x="28.4" y="74.8" width="74.4" height="0.5"/>
		</g>
		<g clip-path="url(#SVGID_2_)">
			<rect x="28.4" y="73.7" width="74.4" height="0.5"/>
		</g>
		<g clip-path="url(#SVGID_2_)">
			<rect x="28.4" y="72.7" width="74.4" height="0.5"/>
		</g>
		<g clip-path="url(#SVGID_2_)">
			<rect x="28.4" y="71.7" width="74.4" height="0.5"/>
		</g>
		<g clip-path="url(#SVGID_2_)">
			<rect x="28.4" y="70.7" width="74.4" height="0.5"/>
		</g>
		<g clip-path="url(#SVGID_2_)">
			<rect x="28.4" y="69.6" width="74.4" height="0.5"/>
		</g>
		<g clip-path="url(#SVGID_2_)">
			<rect x="28.4" y="68.6" width="74.4" height="0.5"/>
		</g>
		<g clip-path="url(#SVGID_2_)">
			<rect x="28.4" y="67.6" width="74.4" height="0.5"/>
		</g>
		<g clip-path="url(#SVGID_2_)">
			<rect x="28.4" y="66.5" width="74.4" height="0.5"/>
		</g>
		<g clip-path="url(#SVGID_2_)">
			<rect x="28.4" y="65.5" width="74.4" height="0.5"/>
		</g>
		<g clip-path="url(#SVGID_2_)">
			<rect x="28.4" y="64.5" width="74.4" height="0.5"/>
		</g>
		<g clip-path="url(#SVGID_2_)">
			<rect x="28.4" y="63.5" width="74.4" height="0.5"/>
		</g>
		<g clip-path="url(#SVGID_2_)">
			<rect x="28.4" y="62.4" width="74.4" height="0.5"/>
		</g>
		<g clip-path="url(#SVGID_2_)">
			<rect x="28.4" y="61.4" width="74.4" height="0.5"/>
		</g>
		<g clip-path="url(#SVGID_2_)">
			<rect x="28.4" y="60.4" width="74.4" height="0.5"/>
		</g>
		<g clip-path="url(#SVGID_2_)">
			<rect x="28.4" y="59.3" width="74.4" height="0.5"/>
		</g>
		<g clip-path="url(#SVGID_2_)">
			<rect x="28.4" y="58.3" width="74.4" height="0.5"/>
		</g>
		<g clip-path="url(#SVGID_2_)">
			<rect x="28.4" y="57.3" width="74.4" height="0.5"/>
		</g>
		<g clip-path="url(#SVGID_2_)">
			<rect x="28.4" y="56.2" width="74.4" height="0.5"/>
		</g>
		<g clip-path="url(#SVGID_2_)">
			<rect x="28.4" y="55.2" width="74.4" height="0.5"/>
		</g>
		<g clip-path="url(#SVGID_2_)">
			<rect x="28.4" y="54.2" width="74.4" height="0.5"/>
		</g>
		<g clip-path="url(#SVGID_2_)">
			<rect x="28.4" y="53.2" width="74.4" height="0.5"/>
		</g>
		<g clip-path="url(#SVGID_2_)">
			<rect x="28.4" y="52.1" width="74.4" height="0.5"/>
		</g>
		<g clip-path="url(#SVGID_2_)">
			<rect x="28.4" y="51.1" width="74.4" height="0.5"/>
		</g>
		<g clip-path="url(#SVGID_2_)">
			<rect x="28.4" y="50.1" width="74.4" height="0.5"/>
		</g>
		<g clip-path="url(#SVGID_2_)">
			<rect x="28.4" y="49" width="74.4" height="0.5"/>
		</g>
		<g clip-path="url(#SVGID_2_)">
			<rect x="28.4" y="48" width="74.4" height="0.5"/>
		</g>
		<g clip-path="url(#SVGID_2_)">
			<rect x="28.4" y="47" width="74.4" height="0.5"/>
		</g>
		<g clip-path="url(#SVGID_2_)">
			<rect x="28.4" y="46" width="74.4" height="0.5"/>
		</g>
		<g clip-path="url(#SVGID_2_)">
			<rect x="28.4" y="44.9" width="74.4" height="0.5"/>
		</g>
		<g clip-path="url(#SVGID_2_)">
			<rect x="28.4" y="43.9" width="74.4" height="0.5"/>
		</g>
		<g clip-path="url(#SVGID_2_)">
			<rect x="28.4" y="42.9" width="74.4" height="0.5"/>
		</g>
		<g clip-path="url(#SVGID_2_)">
			<rect x="28.4" y="41.8" width="74.4" height="0.5"/>
		</g>
		<g clip-path="url(#SVGID_2_)">
			<rect x="28.4" y="40.8" width="74.4" height="0.5"/>
		</g>
		<g clip-path="url(#SVGID_2_)">
			<rect x="28.4" y="39.8" width="74.4" height="0.5"/>
		</g>
		<g clip-path="url(#SVGID_2_)">
			<rect x="28.4" y="38.7" width="74.4" height="0.5"/>
		</g>
		<g clip-path="url(#SVGID_2_)">
			<rect x="28.4" y="37.7" width="74.4" height="0.5"/>
		</g>
		<g clip-path="url(#SVGID_2_)">
			<rect x="28.4" y="36.7" width="74.4" height="0.5"/>
		</g>
		<g clip-path="url(#SVGID_2_)">
			<rect x="28.4" y="35.7" width="74.4" height="0.5"/>
		</g>
		<g clip-path="url(#SVGID_2_)">
			<rect x="28.4" y="34.6" width="74.4" height="0.5"/>
		</g>
		<g clip-path="url(#SVGID_2_)">
			<rect x="28.4" y="33.6" width="74.4" height="0.5"/>
		</g>
		<g clip-path="url(#SVGID_2_)">
			<rect x="28.4" y="32.6" width="74.4" height="0.5"/>
		</g>
		<g clip-path="url(#SVGID_2_)">
			<rect x="28.4" y="31.5" width="74.4" height="0.5"/>
		</g>
		<g clip-path="url(#SVGID_2_)">
			<rect x="28.4" y="30.5" width="74.4" height="0.5"/>
		</g>
		<g clip-path="url(#SVGID_2_)">
			<rect x="28.4" y="29.5" width="74.4" height="0.5"/>
		</g>
		<g clip-path="url(#SVGID_2_)">
			<rect x="28.4" y="28.5" width="74.4" height="0.5"/>
		</g>
		<g clip-path="url(#SVGID_2_)">
			<rect x="28.4" y="27.4" width="74.4" height="0.5"/>
		</g>
		<g clip-path="url(#SVGID_2_)">
			<rect x="28.4" y="26.4" width="74.4" height="0.5"/>
		</g>
		<g clip-path="url(#SVGID_2_)">
			<rect x="28.4" y="25.4" width="74.4" height="0.5"/>
		</g>
		<g clip-path="url(#SVGID_2_)">
			<rect x="28.4" y="24.3" width="74.4" height="0.5"/>
		</g>
		<g clip-path="url(#SVGID_2_)">
			<rect x="28.4" y="23.3" width="74.4" height="0.5"/>
		</g>
		<g clip-path="url(#SVGID_2_)">
			<rect x="28.4" y="22.3" width="74.4" height="0.5"/>
		</g>
		<g clip-path="url(#SVGID_2_)">
			<rect x="28.4" y="21.2" width="74.4" height="0.5"/>
		</g>
		<g clip-path="url(#SVGID_2_)">
			<rect x="28.4" y="20.2" width="74.4" height="0.5"/>
		</g>
		<g clip-path="url(#SVGID_2_)">
			<rect x="28.4" y="19.2" width="74.4" height="0.5"/>
		</g>
		<g clip-path="url(#SVGID_2_)">
			<rect x="28.4" y="18.2" width="74.4" height="0.5"/>
		</g>
	</g>
</g>
</svg>
